<svg width="58" height="18" viewBox="0 0 58 18" fill="red" xmlns="http://www.w3.org/2000/svg">
<path d="M55.7615 0H6.67531C6.37456 0 6.08978 0.135359 5.89988 0.368573L1.82845 5.36857C1.29645 6.02191 1.76135 7 2.60388 7H52.8534C53.2095 7 53.5387 6.81061 53.7178 6.50277L56.6259 1.50277C57.0137 0.836112 56.5328 0 55.7615 0Z" fill="white"/>
<path d="M39.0117 11H5.04595C4.70569 11 4.38877 11.173 4.20477 11.4592L0.990487 16.4592C0.562658 17.1248 1.0405 18 1.83167 18H36.9709C37.3773 18 37.7432 17.7541 37.8968 17.3779L39.9376 12.3779C40.2061 11.7201 39.7222 11 39.0117 11Z" fill="white"/>
<path d="M55.0489 11H44.3424C43.951 11 43.5956 11.2283 43.4329 11.5842L41.1472 16.5842C40.8444 17.2465 41.3285 18 42.0567 18H53.1442C53.5591 18 53.931 17.7438 54.0787 17.356L55.9834 12.356C56.2328 11.7015 55.7494 11 55.0489 11Z" fill="white"/>
</svg>
